<svg xmlns="http://www.w3.org/2000/svg" version="1.1" xmlns:xlink="http://www.w3.org/1999/xlink" xmlns:svgjs="http://svgjs.dev/svgjs" width="100%" height="100%" viewBox="0 0 1000 600"><rect width="1000" height="600" x="0" y="0" fill="#191919"/><g><circle r="166.66666666666666" cx="393.15481058756507" cy="415.37702895112955" fill="#3178dc" transform="matrix(0.5519053805654389,0,0,0.5519053805654389,0,70.7512036316464)"/><path d="M425.5998697409327 490.37703432822144L360.272112301364 490.37703432822144L360.272112301364 481.56551903266546L365.11552799362323 481.56551903266546Q372.0305250964271 481.56551903266546 377.1948900213059 479.14381118653586Q382.33007774321925 476.72210334040625 382.33007774321925 467.4729300003691L382.33007774321925 467.4729300003691L382.33007774321925 350.8808269505628L362.16863049411614 350.8808269505628Q352.91945715407894 350.8808269505628 349.35983839229806 356.04519187544156Q345.7710424275518 361.180379597355 344.9249035415547 368.12455390312425L344.9249035415547 368.12455390312425L343.87452423479965 377.1403096194381L332.96225032573375 377.1403096194381L334.0126296324887 340.3770338830127L452.29701045428925 340.3770338830127L453.34738976104427 377.1403096194381L442.4059386490129 377.1403096194381L441.35555934225783 368.12455390312425Q440.5094204562607 361.180379597355 436.9498016944799 356.04519187544156Q433.390182932699 350.8808269505628 423.93676917190396 350.8808269505628L423.93676917190396 350.8808269505628L403.54190429907743 350.8808269505628L403.54190429907743 466.4225506936141Q403.54190429907743 476.3136224988904 408.58956041209456 478.939570765778Q413.63721652511174 481.56551903266546 420.78563125163885 481.56551903266546L420.78563125163885 481.56551903266546L425.5998697409327 481.56551903266546L425.5998697409327 490.37703432822144Z " fill="white" transform="matrix(0.5519053805654389,0,0,0.5519053805654389,0,70.7512036316464)"/><path d="M699.4318738337166 488.4289753484904L643.1548200349279 488.4289753484904L643.1548200349279 480.25798003732L643.7230018280887 480.25798003732Q650.3517894149653 480.25798003732 655.0325251395761 477.82291520948786Q659.7132608641869 475.38785038165565 659.7132608641869 466.2157728634877L659.7132608641869 466.2157728634877L659.7132608641869 405.44737727114176Q659.7132608641869 396.8705378219994 654.9243000361168 394.5436980976264Q650.1623954839117 392.1898020973886 643.7230018280887 392.1898020973886L643.7230018280887 392.1898020973886L643.1548200349279 392.1898020973886L643.1548200349279 384.0188067862183L673.1331736931288 384.0188067862183L676.8398834866067 403.3099314778224L677.8139094177396 403.3099314778224Q680.357199349031 397.4657758910251 683.2792771424297 392.5956462353606Q686.2013549358282 387.72551657969626 691.0714845914927 384.884607613892Q695.9416142471571 382.07075492395256 704.5184536962995 382.07075492395256L704.5184536962995 382.07075492395256Q715.2327389387611 382.07075492395256 720.3734313530736 385.77746471743046Q725.5411800432508 389.4571182350436 725.5411800432508 396.27529975297375L725.5411800432508 396.27529975297375Q725.5411800432508 402.3359055466895 721.3474572842065 406.232009271221Q717.1807908010269 410.12811299575253 707.4405314896981 410.12811299575253L707.4405314896981 410.12811299575253Q707.4405314896981 402.11945533977104 705.0866354894604 398.52097064975237Q702.7597957650873 394.92248595973365 697.1050341093437 394.92248595973365L697.1050341093437 394.92248595973365Q691.6396663846535 394.92248595973365 687.9600128670404 399.1973775463724Q684.2533030735626 403.49932540887596 682.1158572802432 410.12811299575253Q679.951355211059 416.7298443067643 678.9773292799262 423.8456448592073Q678.0033033487932 430.96144541165035 678.0033033487932 436.616207067394L678.0033033487932 436.616207067394L678.0033033487932 467.1897987946206Q678.0033033487932 475.7666382437629 682.7922641768632 478.0123091405415Q687.5541687290685 480.25798003732 693.9935623848914 480.25798003732L693.9935623848914 480.25798003732L699.4318738337166 480.25798003732L699.4318738337166 488.4289753484904ZM764.5022172885662 490.3770272107561L764.5022172885662 490.3770272107561Q751.4610923217315 490.3770272107561 742.8842528725892 482.7742136927466Q734.3074134234469 475.17140017473724 734.3074134234469 459.2081974145039L734.3074134234469 459.2081974145039Q734.3074134234469 443.6237825163778 745.3193177004214 436.21036292942193Q756.3312219773959 428.8239996183309 778.7338183934521 428.0393676182517L778.7338183934521 428.0393676182517L794.8864150847392 427.444129549226L794.8864150847392 415.7558183756314Q794.8864150847392 408.7482429266476 793.7229952225526 403.3911003054168Q792.5595753603661 398.0339576841859 788.6634716358346 394.92248595973365Q784.767367911303 391.8110142352814 776.7857665311864 391.8110142352814L776.7857665311864 391.8110142352814Q769.3723469442306 391.8110142352814 765.476243219699 394.5436980976264Q761.5801394951675 397.2493256841066 760.3084945295218 402.0382865121766Q759.0639058397409 406.80019106438186 759.0639058397409 413.05019078915115L759.0639058397409 413.05019078915115Q750.8658542527057 413.05019078915115 746.6721314936615 410.20928182334694Q742.5054650104819 407.3954291334075 742.5054650104819 400.76664154653093L742.5054650104819 400.76664154653093Q742.5054650104819 393.9484600286008 747.2673695626871 389.8629623730156Q752.0292741148922 385.77746471743046 760.0379317708738 383.9105816827591Q768.0195331509905 382.07075492395256 777.5703985312657 382.07075492395256L777.5703985312657 382.07075492395256Q795.4816531537648 382.07075492395256 804.3561116374199 389.673568441962Q813.2035138452103 397.2493256841066 813.2035138452103 415.7558183756314L813.2035138452103 415.7558183756314L813.2035138452103 466.2157728634877Q813.2035138452103 474.4138244505228 815.9361977075553 477.33590224392145Q818.6688815699003 480.25798003732 825.2976691567769 480.25798003732L825.2976691567769 480.25798003732L825.8658509499377 480.25798003732L825.8658509499377 488.4289753484904L799.5671508093499 488.4289753484904L796.4556790848976 471.68114058817775L794.8864150847392 471.68114058817775Q790.800917429154 477.119452037003 786.9048137046225 481.31317479604735Q783.0087099800909 485.5068975550917 777.8409612899137 487.9419623829239Q772.7002688756013 490.3770272107561 764.5022172885662 490.3770272107561ZM768.9935590821233 478.30992817505427L768.9935590821233 478.30992817505427Q780.8712641867716 478.30992817505427 787.8788396357553 471.00473369155765Q794.8864150847392 463.6995392080611 794.8864150847392 451.2265960343872L794.8864150847392 451.2265960343872L794.8864150847392 435.45278720520747L782.4405281869301 436.0209689983683Q765.882087357671 436.8056009984476 759.5509188053073 442.7579816887041Q753.2197502529436 448.6833061030958 753.2197502529436 460.18222334563677L753.2197502529436 460.18222334563677Q753.2197502529436 478.30992817505427 768.9935590821233 478.30992817505427ZM880.8171472313512 488.4289753484904L849.4318672281805 402.5252994777431Q847.2944214348612 396.27529975297375 844.2911748138681 394.2460790631136Q841.2608719170103 392.1898020973886 835.0379284681057 392.1898020973886L835.0379284681057 392.1898020973886L835.0379284681057 384.0188067862183L883.7392250247499 384.0188067862183L883.7392250247499 392.1898020973886L881.1959350934585 392.1898020973886Q869.5076239198638 392.1898020973886 869.5076239198638 401.5512735466102L869.5076239198638 401.5512735466102Q869.5076239198638 403.09348127090396 869.8864117819711 404.85213920211606Q870.292255919943 406.6107971333283 871.0768879200224 408.7482429266476L871.0768879200224 408.7482429266476L884.3074068179106 445.57183437864353Q887.0400906802557 452.7688037586809 889.5833806115471 461.2644743802289Q892.0996142669737 469.73308872591195 893.4794843360787 474.79261231263L893.4794843360787 474.79261231263Q894.4535102672115 470.7071146570449 897.5649819916638 462.9149072079818Q900.6764537161162 455.1226997589187 903.2197436474075 448.11512430993497L903.2197436474075 448.11512430993497L917.234894545375 410.12811299575253Q918.208920476508 407.77421699551473 918.5877083386151 405.5285460987362Q918.9935524765872 403.3099314778224 918.9935524765872 401.7406674776638L918.9935524765872 401.7406674776638Q918.9935524765872 396.6811438909458 915.7738556486757 394.4354729941672Q912.5541588207643 392.1898020973886 906.1418214408061 392.1898020973886L906.1418214408061 392.1898020973886L904.7619513717012 392.1898020973886L904.7619513717012 384.0188067862183L946.4556724793615 384.0188067862183L946.4556724793615 392.1898020973886L944.1288327549886 392.1898020973886Q938.4740710992448 392.1898020973886 935.6331621334407 395.11187989078724Q932.8193094435012 398.0339576841859 929.3019935810769 407.3954291334075L929.3019935810769 407.3954291334075L898.5390079227966 488.4289753484904L880.8171472313512 488.4289753484904ZM1002.9491764850687 490.3770272107561L1002.9491764850687 490.3770272107561Q981.7099999311989 490.3770272107561 969.7240697230916 476.3618763127885Q957.7651957908489 462.31966913895616 957.7651957908489 436.99499492950116L957.7651957908489 436.99499492950116Q957.7651957908489 409.7222688577805 969.0476628264714 395.8965118908665Q980.3571861379588 382.07075492395256 1001.001124622803 382.07075492395256L1001.001124622803 382.07075492395256Q1019.8864051764349 382.07075492395256 1030.708915522356 393.75906609754713Q1041.531425868277 405.44737727114176 1041.531425868277 428.6346056872773L1041.531425868277 428.6346056872773L1041.531425868277 437.59023299852686L976.6504763444809 437.59023299852686Q977.0292642065881 458.82940955239667 984.3344586900848 468.46144376026626Q991.6396531735813 478.0934779681359 1005.6818603474137 478.0934779681359L1005.6818603474137 478.0934779681359Q1015.8009075208498 478.0934779681359 1022.9167080732929 473.9268114849563Q1030.0325086257358 469.73308872591195 1033.5227682122952 464.45711493227554L1033.5227682122952 464.45711493227554Q1034.9026382814002 465.0523530013012 1036.0660581435868 466.81101093251334Q1037.2294780057732 468.56966886372544 1037.2294780057732 471.0859025191521L1037.2294780057732 471.0859025191521Q1037.2294780057732 474.98200624368366 1033.5227682122952 479.4733480372408Q1029.8431146946823 483.9376335549332 1022.2403011766728 487.1573303828447Q1014.6374876586633 490.3770272107561 1002.9491764850687 490.3770272107561ZM977.0292642065881 427.06534168711875L1021.8344570387007 427.06534168711875Q1021.8344570387007 411.48092678899263 1017.0725524864956 402.0382865121766Q1012.3106479342903 392.5956462353606 1000.6223367606958 392.5956462353606L1000.6223367606958 392.5956462353606Q989.9080515182341 392.5956462353606 983.9556708279775 401.443048443151Q978.003290137721 410.3175069268062 977.0292642065881 427.06534168711875L977.0292642065881 427.06534168711875ZM1109.1180029785528 488.4289753484904L1053.7879188350323 488.4289753484904L1053.7879188350323 480.25798003732L1056.3312087663237 480.25798003732Q1060.795494284016 480.25798003732 1064.4210352498997 479.2839541061872Q1068.0195199399182 478.30992817505427 1070.1569657332375 475.2796252781964Q1072.294411526557 472.2493223813386 1072.294411526557 466.2157728634877L1072.294411526557 466.2157728634877L1072.294411526557 361.8056043012157Q1072.294411526557 355.96144871441834 1070.0487406297784 353.1475960244789Q1067.8301260088647 350.3066870586747 1064.204585042981 349.440886231001Q1060.6061003529624 348.54802912746254 1056.3312087663237 348.54802912746254L1056.3312087663237 348.54802912746254L1053.7879188350323 348.54802912746254L1053.7879188350323 340.3770338162922L1090.611510287028 340.3770338162922L1090.611510287028 466.2157728634877Q1090.611510287028 472.2493223813386 1092.7489560803474 475.2796252781964Q1094.886401873667 478.30992817505427 1098.593111667145 479.2839541061872Q1102.2998214606228 480.25798003732 1106.5747130472614 480.25798003732L1106.5747130472614 480.25798003732L1109.1180029785528 480.25798003732L1109.1180029785528 488.4289753484904ZM1189.7727613315285 490.3770272107561L1189.7727613315285 490.3770272107561Q1167.1807709844188 490.3770272107561 1152.2727629829126 481.4213998995065Q1137.3647549814063 472.46577258825704 1130.0595604979098 456.3943447245644Q1122.7543660144133 440.3229168608719 1122.7543660144133 418.67789616903L1122.7543660144133 418.67789616903Q1122.7543660144133 397.6551698220787 1130.438348360017 381.5837419583861Q1138.1493869814858 365.5123140946936 1153.3279577416397 356.4484616799848Q1168.5335847776587 347.384609265276 1190.9361811937151 347.384609265276L1190.9361811937151 347.384609265276Q1212.5541456096921 347.384609265276 1223.2684308521539 353.63460899004536Q1233.9827160946156 359.8575524389499 1233.9827160946156 369.2190238881715L1233.9827160946156 369.2190238881715Q1233.9827160946156 375.441967337076 1228.733798576844 379.1486771305539Q1223.4578247832073 382.8553869240318 1215.882067541063 382.8553869240318L1215.882067541063 382.8553869240318Q1215.882067541063 376.7947811303161 1213.4470027132306 371.05885064697804Q1211.0119378853983 365.32292016363994 1205.3571762296547 361.5079852667028Q1199.702414573911 357.7201066456305 1190.1515491936357 357.7201066456305L1190.1515491936357 357.7201066456305Q1165.4221130532064 357.7201066456305 1154.8972217417984 373.6021405782694Q1144.3723304303903 389.4571182350436 1144.3723304303903 418.67789616903L1144.3723304303903 418.67789616903Q1144.3723304303903 447.8986741030165 1155.3842347073646 463.59131410460185Q1166.3961389843394 479.2839541061872 1192.884233055981 479.2839541061872L1192.884233055981 479.2839541061872Q1198.5389947117246 479.2839541061872 1203.7879122294962 478.68871603716156Q1209.0638860231325 478.0934779681359 1213.1493836787176 476.9300581059494L1213.1493836787176 476.9300581059494L1213.1493836787176 445.57183437864353Q1213.1493836787176 436.99499492950116 1208.3604228506476 434.6681552051282Q1203.5985182984425 432.31425920489045 1197.1591246426196 432.31425920489045L1197.1591246426196 432.31425920489045L1196.401548918405 432.31425920489045L1196.401548918405 424.14326389372013L1247.050897337315 424.14326389372013L1247.050897337315 432.31425920489045L1246.2662653372358 432.31425920489045Q1240.8008976125457 432.31425920489045 1236.8236250604198 434.7493240327226Q1232.819296232429 437.1843888605548 1232.819296232429 446.3564663787228L1232.819296232429 446.3564663787228L1232.819296232429 481.4213998995065Q1223.0790369211002 485.88568541719894 1212.7435395407456 488.1313563139775Q1202.4350984362559 490.3770272107561 1189.7727613315285 490.3770272107561ZM1303.9231892051293 490.3770272107561L1303.9231892051293 490.3770272107561Q1288.5281682380569 490.3770272107561 1280.167778995833 481.31317479604735Q1271.780333477744 472.2493223813386 1271.780333477744 452.2006219655201L1271.780333477744 452.2006219655201L1271.780333477744 405.44737727114176Q1271.780333477744 396.8705378219994 1267.018428925539 394.5436980976264Q1262.2294680974692 392.1898020973886 1255.8171307175112 392.1898020973886L1255.8171307175112 392.1898020973886L1255.2218926484852 392.1898020973886L1255.2218926484852 384.0188067862183L1290.0974322382153 384.0188067862183L1290.0974322382153 451.2265960343872Q1290.0974322382153 463.88893313911467 1294.3723238248544 470.89650858809847Q1298.6742716873578 477.90408403708227 1310.551976792006 477.90408403708227L1310.551976792006 477.90408403708227Q1323.403707827787 477.90408403708227 1329.2478634145846 469.2460757603455Q1335.0920190013817 460.561011207744 1335.0920190013817 446.3564663787228L1335.0920190013817 446.3564663787228L1335.0920190013817 406.232009271221Q1335.0920190013817 397.05993175305304 1330.411283276771 394.62486692522083Q1325.7305475521603 392.1898020973886 1319.1288162411483 392.1898020973886L1319.1288162411483 392.1898020973886L1318.5335781721228 392.1898020973886L1318.5335781721228 384.0188067862183L1353.409117761853 384.0188067862183L1353.409117761853 467.1897987946206Q1353.409117761853 475.7666382437629 1358.171022314058 478.0123091405415Q1362.9599831421283 480.25798003732 1369.3723205220863 480.25798003732L1369.3723205220863 480.25798003732L1369.9675585911118 480.25798003732L1369.9675585911118 488.4289753484904L1338.9881227259134 488.4289753484904L1336.444832794622 472.6551665193106L1335.470806863489 472.6551665193106Q1329.437257345638 483.55884569282597 1321.4556559655216 486.96793645179105Q1313.4740545854047 490.3770272107561 1303.9231892051293 490.3770272107561ZM1437.1753478392807 488.4289753484904L1380.871237764627 488.4289753484904L1380.871237764627 480.25798003732L1381.466475833653 480.25798003732Q1388.0682071446645 480.25798003732 1392.7489428692757 477.82291520948786Q1397.4296785938864 475.38785038165565 1397.4296785938864 466.2157728634877L1397.4296785938864 466.2157728634877L1397.4296785938864 405.44737727114176Q1397.4296785938864 396.8705378219994 1392.6677740416808 394.5436980976264Q1387.878813213611 392.1898020973886 1381.466475833653 392.1898020973886L1381.466475833653 392.1898020973886L1380.871237764627 392.1898020973886L1380.871237764627 384.0188067862183L1410.876647698693 384.0188067862183L1414.5833574921708 403.3099314778224L1415.5573834233037 403.3099314778224Q1418.0736170787304 397.4657758910251 1420.9956948721288 392.5956462353606Q1423.9177726655275 387.72551657969626 1428.7879023211922 384.884607613892Q1433.6580319768564 382.07075492395256 1442.2348714259988 382.07075492395256L1442.2348714259988 382.07075492395256Q1452.9491566684605 382.07075492395256 1458.1169053586377 385.77746471743046Q1463.284654048815 389.4571182350436 1463.284654048815 396.27529975297375L1463.284654048815 396.27529975297375Q1463.284654048815 402.3359055466895 1459.0909312897707 406.232009271221Q1454.8972085307264 410.12811299575253 1445.1569492193976 410.12811299575253L1445.1569492193976 410.12811299575253Q1445.1569492193976 402.11945533977104 1442.8301094950243 398.52097064975237Q1440.4762134947869 394.92248595973365 1434.8214518390432 394.92248595973365L1434.8214518390432 394.92248595973365Q1429.3831403902177 394.92248595973365 1425.67643059674 399.1973775463724Q1421.9697208032621 403.49932540887596 1419.8322750099424 410.12811299575253Q1417.694829216623 416.7298443067643 1416.72080328549 423.8456448592073Q1415.7467773543572 430.96144541165035 1415.7467773543572 436.616207067394L1415.7467773543572 436.616207067394L1415.7467773543572 467.1897987946206Q1415.7467773543572 475.7666382437629 1420.5086819065623 478.0123091405415Q1425.2976427346325 480.25798003732 1431.7099801145905 480.25798003732L1431.7099801145905 480.25798003732L1437.1753478392807 480.25798003732L1437.1753478392807 488.4289753484904ZM1519.37231391655 490.3770272107561L1519.37231391655 490.3770272107561Q1503.9772929494775 490.3770272107561 1495.6169037072536 481.31317479604735Q1487.2294581891651 472.2493223813386 1487.2294581891651 452.2006219655201L1487.2294581891651 452.2006219655201L1487.2294581891651 405.44737727114176Q1487.2294581891651 396.8705378219994 1482.4675536369596 394.5436980976264Q1477.6785928088898 392.1898020973886 1471.2662554289318 392.1898020973886L1471.2662554289318 392.1898020973886L1470.6710173599058 392.1898020973886L1470.6710173599058 384.0188067862183L1505.546556949636 384.0188067862183L1505.546556949636 451.2265960343872Q1505.546556949636 463.88893313911467 1509.821448536275 470.89650858809847Q1514.1233963987784 477.90408403708227 1526.0011015034265 477.90408403708227L1526.0011015034265 477.90408403708227Q1538.8528325392076 477.90408403708227 1544.6969881260047 469.2460757603455Q1550.5411437128023 460.561011207744 1550.5411437128023 446.3564663787228L1550.5411437128023 446.3564663787228L1550.5411437128023 406.232009271221Q1550.5411437128023 397.05993175305304 1545.8604079881916 394.62486692522083Q1541.2067285394455 392.1898020973886 1534.577940952569 392.1898020973886L1534.577940952569 392.1898020973886L1533.9827028835434 392.1898020973886L1533.9827028835434 384.0188067862183L1568.8582424732735 384.0188067862183L1568.8582424732735 467.1897987946206Q1568.8582424732735 475.7666382437629 1573.6201470254787 478.0123091405415Q1578.409107853549 480.25798003732 1584.821445233507 480.25798003732L1584.821445233507 480.25798003732L1585.4166833025324 480.25798003732L1585.4166833025324 488.4289753484904L1554.437247437334 488.4289753484904L1551.9210137819073 472.6551665193106L1550.9469878507743 472.6551665193106Q1544.8863820570587 483.55884569282597 1536.9047806769422 486.96793645179105Q1528.9231792968253 490.3770272107561 1519.37231391655 490.3770272107561Z " fill="#3178dc" transform="matrix(0.5519053805654389,0,0,0.5519053805654389,0,70.7512036316464)"/></g></svg>